<?xml version="1.0" encoding="UTF-8"?>
<svg width="400" height="300" viewBox=".108 .081 400 300" xmlns="http://www.w3.org/2000/svg">
<mask id="b" x="25" y="4" width="33" height="33" mask-type="alpha" maskUnits="userSpaceOnUse"><path transform="translate(25 4.3679)" d="M0 0H32.5247V32.1367H0V0Z" clip-rule="evenodd" fill="#fff" fill-rule="evenodd"/></mask><mask id="a" x="75" y="4" width="34" height="33" mask-type="alpha" maskUnits="userSpaceOnUse"><path transform="translate(75.45 4.5504)" d="M0 0H33.4295V31.7713H0V0Z" clip-rule="evenodd" fill="#fff" fill-rule="evenodd"/></mask><rect x=".108" y=".081" width="400" height="300" fill="#261e1e" stroke-width="0px" style="paint-order:fill"/><g transform="translate(132.04 138.72)" opacity=".20318"><mask id="d" x="0" y="0" width="18" height="48" mask-type="alpha" maskUnits="userSpaceOnUse"><path transform="translate(6.1035e-5 .062622)" d="M0 0H17.9617V46.9374H0V0Z" clip-rule="evenodd" fill="#fff" fill-rule="evenodd"/></mask><g mask="url(#d)"><path transform="translate(6.1035e-5 .062622)" d="m17.962 46.409c0 0.3518-0.5721 0.5287-1.7161 0.5287-3.3947 0-5.9491-0.5418-7.6652-1.6244-2.6313-1.6804-3.9469-4.1641-3.9469-7.4495 0-1.3066 0.15186-3.4911 0.4576-6.5532 0.1144-1.1572 0.1716-2.0166 0.1716-2.5767 0-1.381-0.32454-2.3988-0.97254-3.0526-0.6488-0.6529-1.8501-1.1666-3.6037-1.5402-0.4576-0.1121-0.6864-0.3362-0.6864-0.6722 0-0.4104 0.3808-0.6721 1.144-0.7842 1.2201-0.1488 2.2113-0.6344 2.9745-1.4563 0.76254-0.8209 1.1441-1.8107 1.1441-2.9686 0-0.5601-0.0572-1.4746-0.1716-2.7445-0.30574-3.3608-0.4576-5.6195-0.4576-6.7774 0-3.3974 1.4488-5.8619 4.3473-7.3935 1.6777-0.89613 4.2705-1.3442 7.7796-1.3442 0.8009 0 1.2013 0.15928 1.2013 0.47601 0 0.31777-0.4906 0.47614-1.4721 0.47614-1.5856 0.0376-2.6805 0.42091-3.2847 1.1508s-0.9062 2.0689-0.9062 4.0154c0 0.97316 0.0374 2.3586 0.1144 4.1544 0.0374 0.5995 0.057 1.479 0.057 2.6395 0 3.1822-0.9536 5.6528-2.86 7.4119-1.5643 1.4598-3.7379 2.3963-6.5212 2.8076-0.3432 0.0376-0.5148 0.1312-0.5148 0.2809 0 0.2249 0.3236 0.3929 0.9724 0.5051 5.9867 0.9362 8.981 4.1745 8.981 9.7144 0 1.0107-0.0198 1.816-0.0574 2.4146-0.1142 1.8343-0.1714 3.294-0.1714 4.3793 0 2.4707 0.4764 4.0802 1.43 4.8293 0.6096 0.4866 1.7349 0.7299 3.3749 0.7299 0.5721 0 0.8581 0.1409 0.8581 0.4235z" clip-rule="evenodd" fill="#CEC0AB" fill-rule="evenodd"/></g><mask id="c" x="116" y="0" width="18" height="48" mask-type="alpha" maskUnits="userSpaceOnUse"><path transform="translate(116.02 .062622)" d="M0 0H17.9617V46.9374H0V0Z" clip-rule="evenodd" fill="#fff" fill-rule="evenodd"/></mask><g mask="url(#c)"><path transform="translate(116.02 .062622)" d="m17.962 23.469c0 0.4112-0.3816 0.6721-1.144 0.7842-1.2585 0.1495-2.2594 0.6258-3.0032 1.4282-0.7437 0.8035-1.1154 1.802-1.1154 2.9966 0 0.5601 0.0572 1.4755 0.1716 2.7445 0.3049 3.3608 0.4576 5.6205 0.4576 6.7774 0 3.3607-1.4498 5.8252-4.3474 7.3935-1.6785 0.8962-4.1955 1.3444-7.5508 1.3444-0.95373 0-1.4301-0.1593-1.4301-0.4762 0-0.3176 0.4908-0.476 1.4721-0.476 1.6231-0.0377 2.7279-0.4307 3.3133-1.179 0.58453-0.7501 0.87773-2.1161 0.87773-4.0992 0-0.7115-0.03853-2.0585-0.11453-4.0425-0.0768-0.674-0.1144-1.5158-0.1144-2.5275 0-3.2567 0.95813-5.7648 2.8763-7.5239 1.6105-1.4598 3.7979-2.3954 6.5596-2.8076 0.345-0.0367 0.5175-0.1304 0.5175-0.2809 0-0.2241-0.3244-0.393-0.9725-0.505-2.86-0.4489-5.0723-1.5062-6.6355-3.1725-1.5641-1.6655-2.3453-3.8088-2.3453-6.4299 0-0.448 0.0304-1.2909 0.09133-2.5266 0.09107-1.8344 0.1376-3.3126 0.1376-4.4354 0-2.0585-0.2932-3.4903-0.87773-4.2954-0.58547-0.80513-1.6329-1.2078-3.1435-1.2078h-0.79293c-0.56667 0-0.84907-0.14087-0.84907-0.42352 0-0.35185 0.5336-0.52862 1.6017-0.52862 3.5081 0 6.1207 0.54168 7.8368 1.6242 2.5928 1.6436 3.8898 4.1449 3.8898 7.5055 0 1.3076-0.1527 3.4728-0.4576 6.4974-0.1144 1.1203-0.1716 1.9604-0.1716 2.5205 0 1.3819 0.3333 2.4085 1.001 3.0806 0.6668 0.6721 1.8591 1.1955 3.5752 1.5684 0.4576 0.112 0.6864 0.336 0.6864 0.6721z" clip-rule="evenodd" fill="#CEC0AB" fill-rule="evenodd"/></g></g><g transform="translate(132.04 138.72)" mask="url(#b)"><path transform="translate(25 4.3676)" d="m32.525 7.8807c0 0.28928-0.2739 0.43392-0.8222 0.43392-0.2437 0-0.396-0.10673-0.4571-0.32017-0.6544-2.1471-1.591-3.6658-2.8092-4.5568-1.2182-0.8903-3.0227-1.3362-5.4134-1.3362h-2.1464c-0.7464 0-1.2568 0.12217-1.5307 0.36581-0.2745 0.24363-0.4114 0.70072-0.4114 1.3706v23.183c0 1.0504 0.1334 1.7932 0.3995 2.2264 0.2668 0.4339 0.7386 0.7773 1.4162 1.0286 0.6775 0.2507 1.6486 0.4536 2.9124 0.6046 0.2436 0.0309 0.3651 0.2366 0.3651 0.6171 0 0.4262-0.1215 0.6397-0.3651 0.6397-1.0202 0-2.2384-0.0457-3.6546-0.1376-1.3431-0.0913-2.4658-0.1362-3.3688-0.1362-0.9338 0-2.079 0.0449-3.4376 0.1362-1.4162 0.0919-2.6344 0.1376-3.6546 0.1376-0.24364 0-0.36511-0.2135-0.36511-0.6397 0-0.3805 0.12147-0.5862 0.36511-0.6171 1.8424-0.2121 3.095-0.5554 3.7571-1.0279 0.6628-0.4712 0.9942-1.4155 0.9942-2.8317v-23.183c0-0.66983-0.1369-1.1269-0.4114-1.3706-0.2738-0.24364-0.792-0.36581-1.5531-0.36581h-1.7813c-2.1471 0-4.0962 0.54485-5.8473 1.6332-1.7511 1.089-2.8935 2.501-3.4264 4.2373-0.07583 0.22819-0.24363 0.34264-0.50202 0.34264-0.51817 0-0.77655-0.16781-0.77655-0.50273 0.85238-2.2995 1.6591-4.903 2.4209-7.8119 2.0727 0.42689 6.812 0.63964 14.218 0.63964 7.6041 0 12.442-0.21274 14.515-0.63964 0.2135 1.98 0.6698 4.6067 1.3706 7.8807z" clip-rule="evenodd" fill="#9F393D" fill-rule="evenodd"/></g><path d="m211.04 175.13c-1.194 2.654-2.167 5.183-2.919 7.591-5.558-0.184-9.516-0.276-11.874-0.276-2.33 0-6.281 0.092-11.854 0.276-0.235 0-0.353-0.215-0.353-0.644 0-0.383 0.118-0.59 0.353-0.621 1.224-0.153 2.16-0.357 2.809-0.609 0.649-0.254 1.101-0.595 1.36-1.025 0.257-0.43 0.387-1.182 0.387-2.257v-21.664c0-1.06-0.121-1.807-0.365-2.245-0.243-0.437-0.689-0.787-1.338-1.047-0.649-0.262-1.6-0.468-2.853-0.623-0.235 0-0.353-0.21-0.353-0.632 0-0.421 0.118-0.633 0.353-0.633 3.715 0.185 7.519 0.277 11.411 0.277 3.921 0 7.732-0.092 11.433-0.277 0.338 2.378 0.832 4.725 1.482 7.04 0 0.307-0.259 0.46-0.775 0.46-0.251 0-0.405-0.107-0.464-0.322-1.092-3.619-3.421-5.429-6.988-5.429h-4.467c-1.71 0-2.565 0.92-2.565 2.761v10.236h5.572c1.483 0 2.487-0.352 3.013-1.058 0.526-0.705 0.893-1.955 1.101-3.749 0-0.245 0.202-0.368 0.607-0.368 0.406 0 0.609 0.123 0.609 0.368 0 0.767-0.044 1.733-0.133 2.899-0.088 1.119-0.132 2.031-0.132 2.737 0 0.721 0.044 1.641 0.132 2.76 0.089 1.197 0.133 2.178 0.133 2.945 0 0.246-0.203 0.369-0.609 0.369-0.405 0-0.607-0.123-0.607-0.369-0.223-1.87-0.612-3.182-1.167-3.933-0.556-0.752-1.539-1.128-2.947-1.128h-5.572v11.318c0 1.81 0.855 2.715 2.565 2.715h4.821c1.754 0 3.494-0.594 5.219-1.783 1.725-1.188 2.992-2.671 3.803-4.451 0.058-0.138 0.184-0.208 0.376-0.208 0.207 0 0.39 0.058 0.553 0.173 0.162 0.115 0.243 0.257 0.243 0.426z" clip-rule="evenodd" fill="#9F393D" fill-rule="evenodd"/><g transform="translate(132.04 138.72)" mask="url(#a)"><path transform="translate(75.45 4.5504)" d="m33.43 31.132c0 0.4262-0.1207 0.6397-0.3615 0.6397-0.707 0-1.6923-0.045-2.9559-0.1369-1.3544-0.0913-2.4452-0.137-3.2723-0.137-0.8875 0-2.0615 0.0457-3.5208 0.137-1.5348 0.0919-2.8136 0.1369-3.8371 0.1369-0.2255 0-0.3379-0.2135-0.3379-0.6397 0-0.3805 0.12-0.5862 0.3615-0.6164 2.0906-0.2893 3.1363-0.7696 3.1363-1.4401 0-0.5175-0.3761-1.3242-1.1282-2.4223l-5.8904-8.5878-5.8722 8.5899c-0.48086 0.6593-0.72232 1.2715-0.72232 1.8381 0 0.5674 0.27824 0.9999 0.83542 1.2983 0.55654 0.2991 1.5126 0.5399 2.8671 0.7239 0.1804 0.0302 0.2706 0.2394 0.2706 0.6284 0 0.4177-0.1208 0.6277-0.3615 0.6277-1.0381 0-2.2274-0.045-3.5666-0.1369-1.1734-0.0913-2.1517-0.137-2.9337-0.137-0.67792 0-1.505 0.0457-2.4834 0.137-1.1137 0.0919-2.1219 0.1369-3.0246 0.1369-0.24078 0-0.36082-0.2135-0.36082-0.6397 0-0.3805 0.16514-0.5862 0.49612-0.6164 1.4898-0.1524 2.6562-0.4761 3.4992-0.9711 0.84237-0.4943 1.8207-1.4653 2.9337-2.9117l7.5514-9.8368-7.9802-11.634c-1.0533-1.577-1.9859-2.581-2.7984-3.0093-0.81322-0.429-2.0164-0.7281-3.6116-0.89661-0.24147 0-0.36151-0.20854-0.36151-0.62771 0-0.41917 0.12004-0.6284 0.36151-0.6284 0.70776 0 1.7097 0.045638 3.0052 0.13692 1.4009 0.091979 2.5084 0.13762 3.3216 0.13762 0.91869 0 2.0865-0.045638 3.5034-0.13762 1.5057-0.091277 2.7623-0.13692 3.7705-0.13692 0.2408 0 0.3615 0.20923 0.3615 0.6284 0 0.41917-0.1207 0.62771-0.3615 0.62771-1.2337 0.16851-2.0691 0.35949-2.5063 0.57363-0.4364 0.21415-0.6543 0.51186-0.6543 0.89381 0 0.51958 0.3761 1.3291 1.1296 2.4294l5.549 8.0661 5.5211-8.057c0.542-0.8573 0.8126-1.4857 0.8126-1.8838 0-0.53572-0.297-0.96051-0.8923-1.2744-0.594-0.31455-1.5758-0.5631-2.9456-0.74776-0.1797 0-0.2699-0.20854-0.2699-0.62771 0-0.41917 0.1201-0.6284 0.3608-0.6284 1.0075 0 2.1143 0.045638 3.3175 0.13692 1.1442 0.091979 2.1746 0.13762 3.0926 0.13762 0.7077 0 1.5348-0.037915 2.4834-0.11445 1.1733-0.10672 2.2863-0.16008 3.3403-0.16008 0.2408 0 0.3615 0.20923 0.3615 0.6284 0 0.165-0.0534 0.31034-0.1582 0.43743-0.1055 0.12708-0.2179 0.19028-0.3386 0.19028-1.6251 0.18466-2.8706 0.53291-3.7358 1.0462-0.8653 0.51255-1.8319 1.466-2.9005 2.8598l-7.1982 9.3404 8.3071 12.135c1.1095 1.6065 2.0386 2.6049 2.788 2.9939 0.75 0.3904 1.9643 0.6853 3.6435 0.884 0.2401 0.0302 0.3601 0.2359 0.3601 0.6164z" clip-rule="evenodd" fill="#9F393D" fill-rule="evenodd"/></g></svg>