<?xml version="1.0" encoding="utf-8"?>
<svg viewBox="0 0 400 300" width="400" height="300" xmlns="http://www.w3.org/2000/svg">
  <rect width="400" height="300" style="stroke: rgb(0, 0, 0); fill: rgb(51, 51, 51); paint-order: fill;"/>
  <path d="M 222.749 162.122 L 177.729 152.621 L 175.843 161.661 L 220.863 171.094 L 222.749 162.122 Z M 234.481 142.108 L 199.17 112.593 L 193.303 119.679 L 228.616 149.193 L 234.481 142.108 Z M 227.304 151.24 L 185.597 131.756 L 181.755 140.153 L 223.44 159.592 L 227.304 151.24 Z M 216.147 97.939 L 208.785 103.46 L 236.23 140.337 L 243.591 134.815 L 216.147 97.939 Z M 220.863 173.394 L 174.854 173.394 L 174.854 182.527 L 220.863 182.527 L 220.863 173.394 Z M 229.996 191.798 L 165.698 191.798 L 165.698 164.192 L 156.496 164.192 L 156.496 201 L 239.198 201 L 239.198 164.192 L 229.996 164.192 L 229.996 191.798 Z" style="fill: rgb(126, 81, 41);"/>
</svg>