<?xml version="1.0" encoding="UTF-8"?>
<svg width="399.68" height="299.89" viewBox=".27 .27 399.68 299.89" xmlns="http://www.w3.org/2000/svg">
    <rect x=".27" y=".27" width="399.68" height="299.89" fill="#1e4160" stroke-width="0px"/>
    <g transform="translate(47.721 128.79)" fill-rule="evenodd">
        <path d="M0 0v48h48V33h-9v6H9V9h30v6h9V0z" fill="#FFF"/>
        <path d="M15 15v18h18v-5h15v-8H33v-5z" fill="#2980FF"/>
        <path d="m75.87 31.6c-4.1 0-7.4-3-7.4-7.8 0-4.5 2.8-7.8 7.4-7.8 2 0 4 0.9 5.3 2.2l2.6-2.6a11 11 0 0 0-7.9-3.3c-6.6 0-11.2 4.7-11.2 11.5 0 7 5 11.5 11.2 11.5 3 0 5.9-1.2 7.9-3.2l-2.6-2.7a7.5 7.5 0 0 1-5.3 2.2m15.95-15.3h3s3.8 0 3.8 2.8c0 2.2-2.3 2.7-3.3 2.8l-3.5-5.6zm5.5 9c2.1-0.6 4.9-2.2 4.9-6.2 0-6.5-7.5-6.5-7.5-6.5h-6.74v3.7l2.84 5.6h-2.84v13.1h3.04v-9.3h2.1l5.9 9.3h4.3l-6-9.7zm24.07-12.7-6.32 8-5.7-8h-4.6l9.23 11.8v10.6h3.08v-10.6l8.29-11.8zm14.48 9.3-3.5-5.6h3s3.8 0 3.8 2.8c0 2.2-2.3 2.7-3.3 2.8m-7.85-9.3v3.7l3.35 5.6h-3.35v13.1h2.98v-9.3h4.27s7.5 0 7.5-6.6-7.5-6.5-7.5-6.5h-7.25zm30.09 0h-13.17v3.4h5.07v19h3v-19h5v-3.4zm10.46 12.6a4.6 4.6 0 0 1-4.6-4.6c0-2.6 2-4.6 4.6-4.6v-0.1c2.5 0 4.6 2.1 4.6 4.7s-2 4.6-4.6 4.6m0-12.9a8.3 8.3 0 0 0-8.4 8.2v0.1a8.3 8.3 0 0 0 8.3 8.3h0.1a8.3 8.3 0 1 0 0-16.6m7.3 19h-15v3.7h14.8v-3.7zm17.8-9v3.5h3.8v3.3a7.4 7.4 0 0 1-5.6 2.5c-4.1 0-7.5-2.3-7.5-7.8 0-4.9 3.4-7.8 7.5-7.8 2 0 4 0.9 5.3 2.2l2.6-2.6a11 11 0 0 0-7.9-3.3c-6.2 0-11.2 4.8-11.2 11.5 0 7.3 4.7 11.5 10.7 11.5 2.7 0 4.6-0.6 6.4-2.3l0.2 2.1h3.2v-12.8h-7.5zm16.8-6h3s3.7 0 3.7 2.8c0 2.2-2.2 2.7-3.2 2.8l-3.5-5.6zm5.6 9c2.1-0.6 4.9-2.2 4.9-6.2 0-6.5-7.5-6.5-7.5-6.5h-7.6v3.7l3.6 5.6h-3.6v13.1h3.8v-9.3h2.1l5.8 9.3h4.5l-6-9.7zm13.2 3.9 2.65-7.66-0.05-0.14h0.1l-0.05 0.14 2.75 7.66h-5.4zm2.6-17.2-8.8 23h4l1-2.6h7.8l1 2.6h4l-9-23zm19.5 9.9-3.5-5.6h3s3.8 0 3.8 2.8c0 2.2-2.3 2.7-3.3 2.8m-7.25-9.3v3.7l2.75 5.7h-2.85v13h3.02v-9.3h3.73s7.5 0 7.5-6.6-7.5-6.5-7.5-6.5h-6.65zm30.88 0v9.3h-8.99v-9.3h-4v22.4h4v-9.3h9v9.3h3.96v-22.4h-4.06zm22.57 0-5.7 8-5.8-8h-4.5l8.4 11.8v10.6h3.7v-10.6l8.4-11.8z"
              fill="#FFF"/>
    </g>
</svg>
