<?xml version="1.0" encoding="UTF-8"?>
<svg viewBox="0 0 640 640" xmlns="http://www.w3.org/2000/svg">
    <path d="m192 144c30.9 0 56-25.1 56-56s-25.1-56-56-56-56 25.1-56 56 25.1 56 56 56zm-16 432v-160c0-8.8 7.2-16 16-16s16 7.2 16 16v160c0 17.7 14.3 32 32 32s32-14.3 32-32v-336h128c17.7 0 32-14.3 32-32s-14.3-32-32-32h-16v-48h192v192h-192v-32h-64v48c0 26.5 21.5 48 48 48h224c26.5 0 48-21.5 48-48v-224c0-26.5-21.5-48-48-48h-224c-26.5 0-48 21.5-48 48v64h-122.7c-45.6 0-88.5 21.6-115.6 58.2l-67.4 90.7c-10.5 14.2-7.6 34.2 6.6 44.8s34.2 7.6 44.8-6.6l46.3-62.4v275.3c0 17.7 14.3 32 32 32s32-14.3 32-32z" fill="currentColor"/>
</svg>
