<?xml version="1.0" encoding="UTF-8"?>
<svg viewBox="0 0 50 50" xmlns="http://www.w3.org/2000/svg">
    <path d="m3.125 23.16 5.0586-8.6797c0.046875-0.085938 0.10938-0.16406 0.17969-0.22656l9.0781-8.4609c0.097657-0.089844 0.21484-0.16016 0.33984-0.20703l7.7969-2.8633 6.5742 4.5938-3.2734 10.406-12.281 11.41-10.016 2.2461zm4.1719 10.109 4.6719 13.359 3.8438-15.273zm35.188-30.395-7.4102 4.1172 12.281 8.918c0.25781-1.1484 0.55859-2.7148 0.62891-4.0469-0.003906-0.015625-0.003906-0.035156-0.003906-0.054687 0.039062-1.8984-0.27344-3.8828-1.3047-5.5977-0.92578-1.543-2.3164-2.6719-4.1406-3.3828-0.015625 0.015625-0.027343 0.035156-0.050781 0.046875zm-8.1094 32.703-5.0781-15.52-10.309 9.5859zm-3.2305-16.309 5.043 15.41c3.9453-4.293 7.9844-9.4336 10.289-15.754zm14.238-2.3203-11.531-8.3711-2.7344 8.6914zm-39.621 17.988-3.4258 5.8789c1.1719 5.4258 5.2305 6.6406 7.9062 6.9375zm-0.88281-2.4531-2.8789-6.8398v11.777zm35.043-30.473c-0.015625-0.003906-0.03125-0.011719-0.050781-0.011719h-11.832l5.2734 3.6875zm-22.047 29.344-4.0977 16.277c8.332-1.2266 14.582-5.7031 19.648-10.277zm26.672 14.293c-0.23438 0-0.47266-0.082032-0.66406-0.25l-8.2656-7.3398c-3.6328 3.3711-7.875 6.7969-13.098 9.1055l22.043-1.4961c0.12891-0.007813 0.25-0.046875 0.36328-0.097656-0.12109 0.050781-0.25 0.078125-0.37891 0.078125zm-7.4844-8.9805 8.1484 7.2344c0.17188 0.15234 0.26172 0.35156 0.30078 0.55859l1.6836-22.047c-2.6133 5.6641-6.4531 10.316-10.133 14.254z"
          fill="currentColor"/>
</svg>
