<?xml version="1.0" encoding="UTF-8"?>
<svg viewBox="0 0 640 512" xmlns="http://www.w3.org/2000/svg">
    <path d="m144 0a80 80 0 1 1 0 160 80 80 0 1 1 0-160zm368 0a80 80 0 1 1 0 160 80 80 0 1 1 0-160zm-512 298.7c0-58.9 47.8-106.7 106.7-106.7h42.7c15.9 0 31 3.5 44.6 9.7-1.3 7.2-1.9 14.7-1.9 22.3 0 38.2 16.8 72.5 43.3 96h-0.7-213.4c-11.7 0-21.3-9.6-21.3-21.3zm405.3 21.3h-0.7c26.6-23.5 43.3-57.8 43.3-96 0-7.6-0.7-15-1.9-22.3 13.6-6.3 28.7-9.7 44.6-9.7h42.7c58.9 0 106.7 47.8 106.7 106.7 0 11.8-9.6 21.3-21.3 21.3h-213.4zm-181.3-96a96 96 0 1 1 192 0 96 96 0 1 1-192 0zm-96 261.3c0-73.6 59.7-133.3 133.3-133.3h117.4c73.6 0 133.3 59.7 133.3 133.3 0 14.7-11.9 26.7-26.7 26.7h-330.6c-14.7 0-26.7-11.9-26.7-26.7z"
          fill="currentColor"/>
</svg>
